<svg width="25" height="25" viewBox="0 0 25 25" fill="none" xmlns="http://www.w3.org/2000/svg">
<path id="Path" d="M12.5 0.849609C5.59375 0.849609 0 6.26277 0 12.939C0 18.2814 3.58125 22.8119 8.54688 24.4092C9.17188 24.523 9.40104 24.1488 9.40104 23.8279C9.40104 23.5408 9.39062 22.7801 9.38542 21.7723C5.90833 22.5012 5.175 20.1504 5.175 20.1504C4.60625 18.7551 3.78437 18.3819 3.78437 18.3819C2.65208 17.6325 3.87188 17.6478 3.87188 17.6478C5.12708 17.7319 5.78646 18.8935 5.78646 18.8935C6.90104 20.742 8.7125 20.2078 9.42708 19.8992C9.53958 19.117 9.86146 18.5849 10.2188 18.2825C7.44271 17.98 4.525 16.9404 4.525 12.3085C4.525 10.989 5.00937 9.91051 5.81146 9.0647C5.67083 8.75918 5.24896 7.52994 5.92083 5.86499C5.92083 5.86499 6.96771 5.54102 9.35833 7.10448C10.3583 6.83587 11.4208 6.70259 12.4833 6.69644C13.5458 6.70259 14.6083 6.83587 15.6083 7.10448C17.9833 5.54102 19.0302 5.86499 19.0302 5.86499C19.7021 7.52994 19.2802 8.75918 19.1552 9.0647C19.9521 9.91051 20.4365 10.989 20.4365 12.3085C20.4365 16.9527 17.5146 17.9749 14.7333 18.2722C15.1708 18.6351 15.5771 19.3764 15.5771 20.5092C15.5771 22.127 15.5615 23.427 15.5615 23.8197C15.5615 24.1365 15.7802 24.5148 16.4208 24.3938C21.4219 22.8068 25 18.2732 25 12.939C25 6.26277 19.4031 0.849609 12.5 0.849609V0.849609Z" fill="#33323D"/>
</svg>
