<svg width="27" height="24" viewBox="0 0 27 24" fill="none" xmlns="http://www.w3.org/2000/svg">
<path d="M13.7719 0C6.63065 0 0.846558 5.50948 0.846558 12.3045C0.846558 17.742 4.54967 22.3531 9.68426 23.9788C10.3305 24.0946 10.5675 23.7137 10.5675 23.3871C10.5675 23.095 10.5567 22.3207 10.5513 21.295C6.95594 22.0369 6.19765 19.6442 6.19765 19.6442C5.60955 18.2241 4.75971 17.8443 4.75971 17.8443C3.58889 17.0815 4.85018 17.0971 4.85018 17.0971C6.1481 17.1827 6.82992 18.3649 6.82992 18.3649C7.98243 20.2463 9.85553 19.7027 10.5944 19.3886C10.7108 18.5924 11.0436 18.0509 11.413 17.743C8.54252 17.4352 5.52553 16.3771 5.52553 11.6628C5.52553 10.3198 6.02639 9.22212 6.85577 8.36127C6.71036 8.05031 6.27413 6.7992 6.96886 5.10462C6.96886 5.10462 8.05136 4.77489 10.5233 6.36617C11.5574 6.09278 12.656 5.95713 13.7547 5.95087C14.8533 5.95713 15.952 6.09278 16.986 6.36617C19.4418 4.77489 20.5243 5.10462 20.5243 5.10462C21.2191 6.7992 20.7828 8.05031 20.6536 8.36127C21.4776 9.22212 21.9784 10.3198 21.9784 11.6628C21.9784 16.3897 18.9571 17.43 16.0812 17.7326C16.5336 18.102 16.9537 18.8564 16.9537 20.0094C16.9537 21.656 16.9375 22.9791 16.9375 23.3788C16.9375 23.7012 17.1637 24.0862 17.8262 23.9631C22.9974 22.3478 26.6973 17.7336 26.6973 12.3045C26.6973 5.50948 20.9099 0 13.7719 0V0Z" fill="white"/>
</svg>
