<svg width="26" height="24" viewBox="0 0 26 24" fill="none" xmlns="http://www.w3.org/2000/svg">
<path fill-rule="evenodd" clip-rule="evenodd" d="M3.05039 0H22.9037C24.2686 0 25.3854 1.08 25.3854 2.4V21.6C25.3854 22.92 24.2686 24 22.9037 24H3.05039C1.68548 24 0.568726 22.92 0.568726 21.6V2.4C0.568726 1.08 1.68548 0 3.05039 0ZM4.29122 20.4H8.01372V9.60001H4.29122V20.4ZM6.15249 7.55999C4.91166 7.55999 3.91899 6.59999 3.91899 5.39999C3.91899 4.19999 4.91166 3.23999 6.15249 3.23999C7.39332 3.23999 8.38599 4.19999 8.38599 5.39999C8.38599 6.59999 7.39332 7.55999 6.15249 7.55999ZM17.9404 20.4H21.6629V13.56C21.6629 11.28 19.6776 9.35999 17.32 9.35999C16.2032 9.35999 14.8383 10.08 14.2179 11.04V9.59999H10.4954V20.4H14.2179V14.04C14.2179 13.08 15.0865 12.24 16.0791 12.24C17.0718 12.24 17.9404 13.08 17.9404 14.04V20.4Z" fill="white"/>
</svg>
