<svg width="24" height="25" viewBox="0 0 24 25" fill="none" xmlns="http://www.w3.org/2000/svg">
<path id="Shape" fill-rule="evenodd" clip-rule="evenodd" d="M2.4 0.849609H21.6C22.92 0.849609 24 1.91073 24 3.20765V22.072C24 23.3689 22.92 24.43 21.6 24.43H2.4C1.08 24.43 0 23.3689 0 22.072V3.20765C0 1.91073 1.08 0.849609 2.4 0.849609ZM3.6001 20.8929H7.2001V10.2817H3.6001V20.8929ZM5.39999 8.27741C4.19999 8.27741 3.23999 7.3342 3.23999 6.15517C3.23999 4.97615 4.19999 4.03294 5.39999 4.03294C6.59999 4.03294 7.55999 4.97615 7.55999 6.15517C7.55999 7.3342 6.59999 8.27741 5.39999 8.27741ZM16.8001 20.8929H20.4001V14.1725C20.4001 11.9324 18.4801 10.0459 16.2001 10.0459C15.1201 10.0459 13.8001 10.7534 13.2001 11.6966V10.2817H9.6001V20.8929H13.2001V14.6441C13.2001 13.7009 14.0401 12.8756 15.0001 12.8756C15.9601 12.8756 16.8001 13.7009 16.8001 14.6441V20.8929Z" fill="#33323D"/>
</svg>
