<svg width="26" height="20" viewBox="0 0 26 20" fill="none" xmlns="http://www.w3.org/2000/svg">
<path d="M25.0243 2.55699C24.1113 2.94899 23.13 3.21299 22.1001 3.33199C23.1517 2.72299 23.9593 1.75799 24.3387 0.607986C23.3554 1.17199 22.2655 1.58199 21.1053 1.80299C20.1778 0.845986 18.8532 0.247986 17.389 0.247986C14.1019 0.247986 11.6864 3.21399 12.4288 6.29299C8.19861 6.08799 4.44716 4.12799 1.9355 1.14899C0.601606 3.36199 1.24374 6.25699 3.51033 7.72299C2.6769 7.69699 1.89104 7.47599 1.20548 7.10699C1.14964 9.38799 2.84028 11.522 5.28885 11.997C4.57227 12.185 3.78745 12.229 2.98918 12.081C3.63648 14.037 5.51634 15.46 7.7457 15.5C5.60527 17.123 2.90852 17.848 0.207642 17.54C2.46079 18.937 5.13789 19.752 8.01248 19.752C17.4656 19.752 22.8063 12.031 22.4837 5.10599C23.4784 4.41099 24.3419 3.54399 25.0243 2.55699Z" fill="white"/>
</svg>
