<svg width="24" height="20" viewBox="0 0 24 20" fill="none" xmlns="http://www.w3.org/2000/svg">
<path id="Path" d="M24 2.32698C23.117 2.71213 22.168 2.97151 21.172 3.08843C22.189 2.49008 22.97 1.54195 23.337 0.412056C22.386 0.966196 21.332 1.36903 20.21 1.58616C19.313 0.645895 18.032 0.0583496 16.616 0.0583496C13.437 0.0583496 11.101 2.9725 11.819 5.99767C7.728 5.79625 4.1 3.87052 1.671 0.943598C0.381 3.11791 1.002 5.9623 3.194 7.40267C2.388 7.37712 1.628 7.15999 0.965 6.79744C0.911 9.03856 2.546 11.1353 4.914 11.6019C4.221 11.7867 3.462 11.8299 2.69 11.6845C3.316 13.6063 5.134 15.0044 7.29 15.0437C5.22 16.6383 2.612 17.3507 0 17.048C2.179 18.4206 4.768 19.2214 7.548 19.2214C16.69 19.2214 21.855 11.6354 21.543 4.83142C22.505 4.14857 23.34 3.29673 24 2.32698Z" fill="#33323D"/>
</svg>
